<svg width="453" height="113" viewBox="0 0 453 113" fill="none" xmlns="http://www.w3.org/2000/svg">
<path d="M164.25 89.0506C160.693 89.0506 157.883 87.9967 155.797 85.8671C153.712 83.7374 152.658 80.9052 152.658 77.3484V41.0344H136.564V30.7373H152.658V11.4606H164.843V30.7373H182.231V41.0344H164.843V75.2187C164.843 77.5899 165.941 78.7755 168.158 78.7755H180.343V89.0725H164.25V89.0506Z" fill="white"/>
<path d="M217.602 90.7192C211.696 90.7192 206.514 89.4678 202.101 86.9868C197.688 84.5059 194.241 80.993 191.76 76.4483C189.279 71.9255 188.028 66.6562 188.028 60.6624V59.2353C188.028 53.1537 189.257 47.8625 191.694 43.3178C194.131 38.773 197.556 35.2821 201.926 32.8012C206.295 30.3202 211.366 29.0688 217.119 29.0688C222.871 29.0688 227.635 30.3202 231.851 32.8012C236.066 35.2821 239.359 38.7291 241.73 43.1421C244.102 47.5551 245.287 52.7146 245.287 58.6426V63.2532H200.455C200.608 68.3687 202.321 72.4524 205.592 75.5042C208.863 78.534 212.947 80.049 217.843 80.049C222.41 80.049 225.857 79.0171 228.184 76.9752C230.511 74.9334 232.312 72.5622 233.563 69.8837L243.619 75.0871C242.521 77.3046 240.918 79.6318 238.832 82.0688C236.747 84.5059 234.002 86.5697 230.621 88.2163C227.24 89.863 222.893 90.6973 217.602 90.6973V90.7192ZM200.564 53.9222H232.861C232.553 49.5092 230.972 46.0622 228.118 43.5812C225.286 41.1003 221.576 39.8488 217.009 39.8488C212.442 39.8488 208.71 41.1003 205.834 43.5812C202.957 46.0622 201.201 49.5092 200.564 53.9222Z" fill="white"/>
<path d="M253.315 60.2014V58.4231C253.315 52.2756 254.567 47.0283 257.048 42.6811C259.529 38.334 262.822 34.9968 266.928 32.6256C271.033 30.2544 275.512 29.0688 280.408 29.0688C286.095 29.0688 290.442 30.1227 293.472 32.2524C296.501 34.382 298.741 36.6654 300.146 39.1024H302.034V30.6935H313.868V100.95C313.868 104.507 312.814 107.339 310.728 109.469C308.643 111.599 305.789 112.675 302.144 112.675H262.866V102.026H298.346C300.629 102.026 301.771 100.841 301.771 98.4695V79.8953H299.883C299.004 81.3224 297.797 82.7715 296.216 84.2644C294.635 85.7574 292.571 86.9869 290.003 87.931C287.434 88.875 284.228 89.3581 280.364 89.3581C275.468 89.3581 270.967 88.1944 266.818 85.8672C262.668 83.5399 259.375 80.1808 256.938 75.8117C254.501 71.4426 253.271 66.2172 253.271 60.1356L253.315 60.2014ZM283.723 78.7756C289.015 78.7756 293.362 77.107 296.787 73.7479C300.212 70.3887 301.924 65.7561 301.924 59.8502V58.7744C301.924 52.6927 300.234 48.0382 296.831 44.7669C293.428 41.4955 289.059 39.8489 283.702 39.8489C278.344 39.8489 274.173 41.4955 270.748 44.7669C267.323 48.0382 265.61 52.7147 265.61 58.7744V59.8502C265.61 65.7561 267.323 70.3887 270.748 73.7479C274.173 77.107 278.498 78.7756 283.702 78.7756H283.723Z" fill="white"/>
<path d="M355.627 90.7192C349.787 90.7192 344.605 89.5117 340.083 87.1185C335.538 84.7035 331.981 81.2565 329.368 76.7776C326.778 72.2768 325.46 66.9636 325.46 60.8161V59.0377C325.46 52.8902 326.756 47.5771 329.368 43.1201C331.981 38.6632 335.538 35.2162 340.083 32.7792C344.605 30.3422 349.809 29.1127 355.627 29.1127C361.445 29.1127 366.671 30.3422 371.237 32.7792C375.804 35.2162 379.405 38.6852 381.995 43.1201C384.586 47.5551 385.903 52.8683 385.903 59.0377V60.8161C385.903 66.9636 384.608 72.2987 381.995 76.7776C379.383 81.2784 375.804 84.7254 371.237 87.1185C366.671 89.5117 361.445 90.7192 355.627 90.7192ZM355.627 79.8294C360.984 79.8294 365.353 78.1169 368.69 74.6918C372.028 71.2668 373.718 66.5025 373.718 60.4429V59.389C373.718 53.3074 372.072 48.5651 368.756 45.14C365.441 41.715 361.072 40.0025 355.627 40.0025C350.182 40.0025 346.033 41.715 342.673 45.14C339.314 48.5651 337.646 53.3294 337.646 59.389V60.4429C337.646 66.5245 339.314 71.2668 342.673 74.6918C346.033 78.1169 350.336 79.8294 355.627 79.8294Z" fill="white"/>
<path d="M397.518 89.0505V30.7372H409.461V39.4974H411.349C412.447 37.1262 414.423 34.9307 417.255 32.8669C420.088 30.8251 424.303 29.7932 429.924 29.7932C434.337 29.7932 438.267 30.7811 441.692 32.7571C445.117 34.7331 447.817 37.4995 449.793 41.1001C451.769 44.6788 452.757 49.004 452.757 54.0537V89.0724H440.572V54.9978C440.572 49.9481 439.298 46.2157 436.796 43.8226C434.271 41.4075 430.802 40.2219 426.389 40.2219C421.339 40.2219 417.299 41.8686 414.269 45.1838C411.24 48.4991 409.725 53.3073 409.725 59.6084V89.0724H397.54L397.518 89.0505Z" fill="white"/>
<path fill-rule="evenodd" clip-rule="evenodd" d="M23.7144 99.0183H4.02049C1.1663 99.0183 -0.787719 96.1202 0.310046 93.4636L37.8755 2.48095C38.4903 0.966033 39.9613 0 41.586 0H61.2799C64.1341 0 66.0881 2.8981 64.9903 5.55469L57.1265 24.6118H79.8541C82.7082 24.6118 84.6623 27.5099 83.5645 30.1665L77.439 45.0082C76.8242 46.5232 75.3532 47.4892 73.7285 47.4892H47.6863L27.4468 96.5374C26.832 98.0523 25.361 99.0183 23.7363 99.0183H23.7144ZM81.2811 99.0184H44.7475C41.8933 99.0184 39.9393 96.1203 41.037 93.4638L47.1626 78.622C47.7773 77.1071 49.2483 76.141 50.873 76.141H87.4066C90.2608 76.141 92.2148 79.0391 91.1171 81.6957L84.9915 96.5375C84.3768 98.0524 82.9058 99.0184 81.2811 99.0184Z" fill="white"/>
</svg>
