<svg width="92" height="100" viewBox="0 0 92 100" fill="none" xmlns="http://www.w3.org/2000/svg">
<path fill-rule="evenodd" clip-rule="evenodd" d="M23.7144 99.0183H4.02049C1.1663 99.0183 -0.787719 96.1202 0.310046 93.4636L37.8755 2.48095C38.4903 0.966033 39.9613 0 41.586 0H61.2799C64.1341 0 66.0881 2.8981 64.9903 5.55469L57.1265 24.6118H79.854C82.7082 24.6118 84.6623 27.5099 83.5645 30.1665L77.439 45.0082C76.8242 46.5232 75.3532 47.4892 73.7285 47.4892H47.6863L27.4468 96.5374C26.832 98.0523 25.361 99.0183 23.7363 99.0183H23.7144ZM81.2811 99.0184H44.7475C41.8933 99.0184 39.9393 96.1203 41.037 93.4637L47.1626 78.622C47.7773 77.1071 49.2483 76.141 50.873 76.141H87.4066C90.2608 76.141 92.2148 79.0391 91.1171 81.6957L84.9915 96.5375C84.3768 98.0524 82.9058 99.0184 81.2811 99.0184Z" fill="black"/>
</svg>
