<svg width="130" height="130" viewBox="0 0 130 130" fill="none" xmlns="http://www.w3.org/2000/svg">
<rect width="130" height="130" fill="white"/>
<path fill-rule="evenodd" clip-rule="evenodd" d="M42.7144 114.018H23.0205C20.1663 114.018 18.2123 111.12 19.31 108.464L56.8755 17.4809C57.4903 15.966 58.9613 15 60.586 15H80.2799C83.1341 15 85.0881 17.8981 83.9903 20.5547L76.1265 39.6118H98.8541C101.708 39.6118 103.662 42.5099 102.564 45.1665L96.439 60.0082C95.8242 61.5232 94.3532 62.4892 92.7285 62.4892H66.6863L46.4468 111.537C45.832 113.052 44.361 114.018 42.7363 114.018H42.7144ZM100.281 114.018H63.7475C60.8933 114.018 58.9393 111.12 60.037 108.464L66.1626 93.622C66.7773 92.1071 68.2483 91.141 69.873 91.141H106.407C109.261 91.141 111.215 94.0391 110.117 96.6957L103.992 111.537C103.377 113.052 101.906 114.018 100.281 114.018Z" fill="#2563EB"/>
</svg>
